<svg id="Layer_1" data-name="Layer 1" xmlns="http://www.w3.org/2000/svg" viewBox="0 0 512.43 507.06"><defs><style>.cls-1,.cls-2,.cls-3{stroke:#000;stroke-miterlimit:10;}.cls-1{stroke-width:12px;}.cls-2,.cls-3{fill:none;}.cls-2{stroke-width:18px;}.cls-3{stroke-width:14px;}</style></defs><rect class="cls-1" x="149.28" y="147.94" width="212.83" height="212.83"/><path d="M411.06,56V12.26c0-15.45-24-15.47-24,0V56c0,15.44,24,15.47,24,0Z"/><path d="M363.06,56V12.26c0-15.45-24-15.47-24,0V56c0,15.44,24,15.47,24,0Z"/><path d="M315.06,56V12.26c0-15.45-24-15.47-24,0V56c0,15.44,24,15.47,24,0Z"/><path d="M267.06,56V12.26c0-15.45-24-15.47-24,0V56c0,15.44,24,15.47,24,0Z"/><path d="M219.06,56V12.26c0-15.45-24-15.47-24,0V56c0,15.44,24,15.47,24,0Z"/><path d="M171.06,56V12.26c0-15.45-24-15.47-24,0V56c0,15.44,24,15.47,24,0Z"/><path d="M123.06,56V12.26c0-15.45-24-15.47-24,0V56c0,15.44,24,15.47,24,0Z"/><path d="M57.3,383.62H13.6c-15.45,0-15.47,24,0,24H57.3c15.44,0,15.47-24,0-24Z"/><path d="M57.3,335.62H13.6c-15.45,0-15.47,24,0,24H57.3c15.44,0,15.47-24,0-24Z"/><path d="M57.3,287.62H13.6c-15.45,0-15.47,24,0,24H57.3c15.44,0,15.47-24,0-24Z"/><path d="M57.3,239.62H13.6c-15.45,0-15.47,24,0,24H57.3c15.44,0,15.47-24,0-24Z"/><path d="M57.3,191.62H13.6c-15.45,0-15.47,24,0,24H57.3c15.44,0,15.47-24,0-24Z"/><path d="M57.3,143.62H13.6c-15.45,0-15.47,24,0,24H57.3c15.44,0,15.47-24,0-24Z"/><path d="M57.3,95.62H13.6c-15.45,0-15.47,24,0,24H57.3c15.44,0,15.47-24,0-24Z"/><path d="M497.79,383.62h-43.7c-15.45,0-15.47,24,0,24h43.7c15.44,0,15.47-24,0-24Z"/><path d="M497.79,335.62h-43.7c-15.45,0-15.47,24,0,24h43.7c15.44,0,15.47-24,0-24Z"/><path d="M497.79,287.62h-43.7c-15.45,0-15.47,24,0,24h43.7c15.44,0,15.47-24,0-24Z"/><path d="M497.79,239.62h-43.7c-15.45,0-15.47,24,0,24h43.7c15.44,0,15.47-24,0-24Z"/><path d="M497.79,191.62h-43.7c-15.45,0-15.47,24,0,24h43.7c15.44,0,15.47-24,0-24Z"/><path d="M497.79,143.62h-43.7c-15.45,0-15.47,24,0,24h43.7c15.44,0,15.47-24,0-24Z"/><path d="M497.79,95.62h-43.7c-15.45,0-15.47,24,0,24h43.7c15.44,0,15.47-24,0-24Z"/><path d="M411.06,496.45V452.74c0-15.44-24-15.46-24,0v43.71c0,15.44,24,15.47,24,0Z"/><path d="M363.06,496.45V452.74c0-15.44-24-15.46-24,0v43.71c0,15.44,24,15.47,24,0Z"/><path d="M315.06,496.45V452.74c0-15.44-24-15.46-24,0v43.71c0,15.44,24,15.47,24,0Z"/><path d="M267.06,496.45V452.74c0-15.44-24-15.46-24,0v43.71c0,15.44,24,15.47,24,0Z"/><path d="M219.06,496.45V452.74c0-15.44-24-15.46-24,0v43.71c0,15.44,24,15.47,24,0Z"/><path d="M171.06,496.45V452.74c0-15.44-24-15.46-24,0v43.71c0,15.44,24,15.47,24,0Z"/><path d="M123.06,496.45V452.74c0-15.44-24-15.46-24,0v43.71c0,15.44,24,15.47,24,0Z"/><rect class="cls-2" x="64.19" y="62.85" width="383" height="383" rx="38.21"/><rect class="cls-3" x="112.41" y="111.07" width="286.56" height="286.56" rx="28.43"/></svg>