<svg id="Layer_1" data-name="Layer 1" xmlns="http://www.w3.org/2000/svg" viewBox="0 0 432.51 322.72"><defs><style>.cls-1,.cls-2,.cls-4,.cls-5,.cls-6,.cls-8{fill:none;}.cls-1{stroke:#f05f40;}.cls-1,.cls-2,.cls-3,.cls-4,.cls-5,.cls-6,.cls-7,.cls-8{stroke-miterlimit:10;}.cls-1,.cls-2,.cls-7{stroke-width:8px;}.cls-2,.cls-3,.cls-4,.cls-5,.cls-6,.cls-7,.cls-8{stroke:#000;}.cls-3{stroke-width:4px;}.cls-4{stroke-width:10px;}.cls-5{stroke-linecap:round;stroke-width:7px;}.cls-6{stroke-width:12px;}.cls-8{stroke-width:13px;}</style></defs><path class="cls-1" d="M224.41,154.88a74,74,0,1,1-74-74A74,74,0,0,1,224.41,154.88Z"/><path class="cls-1" d="M402,154.88a74,74,0,1,1-74-74A74,74,0,0,1,402,154.88Z"/><line class="cls-2" x1="120.53" y1="260.21" x2="120.53" y2="295.72"/><line class="cls-2" x1="185.45" y1="260.21" x2="185.45" y2="295.72"/><line class="cls-2" x1="117.55" y1="295.72" x2="188.45" y2="295.72"/><path class="cls-3" d="M41,7.5V316.12a4,4,0,1,0,8,0V7.5A4,4,0,1,0,41,7.5Z"/><line class="cls-2" x1="116.52" y1="295.72" x2="189.46" y2="295.72"/><line class="cls-2" x1="223.75" y1="263.51" x2="223.75" y2="295.91"/><line class="cls-2" x1="356.71" y1="262.36" x2="356.71" y2="294.81"/><line class="cls-2" x1="219.75" y1="295.91" x2="360.72" y2="295.91"/><polygon class="cls-4" points="44.95 133.09 23.09 133.09 22.87 71.3 44.74 71.3 44.95 133.09"/><rect class="cls-4" x="22.87" y="173.94" width="21.11" height="59.74"/><line class="cls-5" x1="174.19" y1="295.33" x2="174.19" y2="275.33"/><line class="cls-5" x1="153.19" y1="295.33" x2="153.19" y2="275.33"/><line class="cls-5" x1="132.19" y1="295.33" x2="132.19" y2="275.33"/><line class="cls-5" x1="342.8" y1="295.33" x2="342.8" y2="275.33"/><line class="cls-5" x1="325.3" y1="295.33" x2="325.3" y2="275.33"/><line class="cls-5" x1="307.8" y1="295.33" x2="307.8" y2="275.33"/><line class="cls-5" x1="290.3" y1="295.33" x2="290.3" y2="275.33"/><line class="cls-5" x1="272.8" y1="295.33" x2="272.8" y2="275.33"/><line class="cls-5" x1="255.3" y1="295.33" x2="255.3" y2="275.33"/><line class="cls-5" x1="237.8" y1="295.33" x2="237.8" y2="275.33"/><path class="cls-2" d="M402,154.88a74,74,0,1,1-74-74A74,74,0,0,1,402,154.88Z"/><path class="cls-6" d="M347.73,143.61c46.65-1.31,34-34.05,34-34.05"/><path class="cls-6" d="M347.39,167.05c24.46,39.74,46.49,12.42,46.49,12.42"/><path class="cls-6" d="M326.92,178.48C304.73,219.53,339.41,225,339.41,225"/><path class="cls-6" d="M306.79,166.46c-46.64,1.31-34,34-34,34"/><path class="cls-6" d="M307.13,143c-24.45-39.74-46.49-12.42-46.49-12.42"/><path class="cls-6" d="M327.6,131.6c22.19-41-12.49-46.47-12.49-46.47"/><circle class="cls-7" cx="328.04" cy="154.88" r="22.5" transform="translate(122.61 453.88) rotate(-80.78)"/><path class="cls-2" d="M224.41,154.88a74,74,0,1,1-74-74A74,74,0,0,1,224.41,154.88Z"/><path class="cls-8" d="M171,143.21c47.69-1.91,35.18-34.74,35.18-34.74"/><path class="cls-8" d="M170.83,166.82c25.51,40.35,47.68,13.1,47.68,13.1"/><path class="cls-8" d="M150.32,178.5c-22.2,42.26,12.48,47.84,12.48,47.84"/><path class="cls-8" d="M129.94,166.57c-47.69,1.92-35.19,34.74-35.19,34.74"/><path class="cls-8" d="M130.08,143c-25.5-40.34-47.67-13.1-47.67-13.1"/><path class="cls-8" d="M150.6,131.28C172.79,89,138.11,83.44,138.11,83.44"/><circle class="cls-7" cx="150.45" cy="154.88" r="22.5"/><path class="cls-6" d="M411.22,49.56H59.74A14.79,14.79,0,0,0,45,64.35V245.41a14.8,14.8,0,0,0,14.79,14.8H411.22A14.8,14.8,0,0,0,426,245.41V64.35A14.79,14.79,0,0,0,411.22,49.56ZM150.44,228.85a74,74,0,1,1,74-74A74,74,0,0,1,150.44,228.85Zm177.6,0a74,74,0,1,1,74-74A74,74,0,0,1,328,228.85Z"/><path d="M43.91.93H8.26c-8.37,0-8.38,13,0,13H43.91c8.37,0,8.38-13,0-13Z"/></svg>