<?xml version="1.0" encoding="UTF-8" standalone="no"?>
<!-- Created with Inkscape (http://www.inkscape.org/) -->

<svg
   xmlns:dc="http://purl.org/dc/elements/1.1/"
   xmlns:cc="http://creativecommons.org/ns#"
   xmlns:rdf="http://www.w3.org/1999/02/22-rdf-syntax-ns#"
   xmlns:svg="http://www.w3.org/2000/svg"
   xmlns="http://www.w3.org/2000/svg"
   xmlns:sodipodi="http://sodipodi.sourceforge.net/DTD/sodipodi-0.dtd"
   xmlns:inkscape="http://www.inkscape.org/namespaces/inkscape"
   width="1024"
   height="1024"
   viewBox="0 0 270.93333 270.93333"
   version="1.1"
   id="svg4847"
   inkscape:version="0.92.2 5c3e80d, 2017-08-06"
   sodipodi:docname="1024.svg"
   inkscape:export-filename="/Users/pete/Dropbox/Projects/Vita Emulator/Logos from Gordon/1024.png"
   inkscape:export-xdpi="96"
   inkscape:export-ydpi="96">
  <defs
     id="defs4841" />
  <sodipodi:namedview
     id="base"
     pagecolor="#ffffff"
     bordercolor="#666666"
     borderopacity="1.0"
     inkscape:pageopacity="0.0"
     inkscape:pageshadow="2"
     inkscape:zoom="0.5"
     inkscape:cx="326.95564"
     inkscape:cy="468.80059"
     inkscape:document-units="mm"
     inkscape:current-layer="layer1"
     showgrid="false"
     fit-margin-top="0"
     fit-margin-left="0"
     fit-margin-right="0"
     fit-margin-bottom="0"
     inkscape:window-width="1440"
     inkscape:window-height="855"
     inkscape:window-x="0"
     inkscape:window-y="1"
     inkscape:window-maximized="1"
     units="px"
     width="1024px"
     inkscape:pagecheckerboard="true" />
  <metadata
     id="metadata4844">
    <rdf:RDF>
      <cc:Work
         rdf:about="">
        <dc:format>image/svg+xml</dc:format>
        <dc:type
           rdf:resource="http://purl.org/dc/dcmitype/StillImage" />
        <dc:title />
      </cc:Work>
    </rdf:RDF>
  </metadata>
  <g
     inkscape:label="Layer 1"
     inkscape:groupmode="layer"
     id="layer1"
     transform="translate(-50.827659,187.78602)"
     style="display:inline">
    <path
       inkscape:connector-curvature="0"
       style="fill:#bd1550;fill-opacity:1;stroke:none;stroke-width:1.37473226;stroke-linecap:round;stroke-linejoin:round;stroke-miterlimit:4;stroke-dasharray:none;stroke-dashoffset:0;stroke-opacity:1"
       d="m 204.50211,-182.69596 c -15.96362,-0.11608 -29.36653,2.85299 -36.37705,8.78985 L 67.358384,-88.572033 c -12.210304,10.34046 -17.347366,24.49614 -16.426118,32.060123 l 2.919292,25.01463 c 0.03414,0.271169 0.07996,0.555709 0.136016,0.849514 l 1.760356,15.615307 H 55.765 c 3.366464,16.00846378 15.786733,33.458233 37.920026,53.834065 9.573854,7.408161 19.173914,13.831415 30.178394,20.274961 53.56534,36.212855 118.91855,13.515587 137.19706,-9.392656 18.27851,-22.908243 54.79426,-141.104547 54.79426,-141.104547 1.1349,-2.712484 3.71146,-20.313634 3.71146,-20.313634 0.59984,-1.47244 1.74524,-10.39973 2.18712,-14.16433 0,0 0.16689,-4.7686 -1.08689,-9.02992 -2.18831,-8.99947 -21.29816,-26.34742 -54.84095,-35.83692 l -21.23382,-6.00794 c -13.71023,-3.8788 -27.67374,-5.8324 -40.08983,-5.92258 z"
       id="path6160"
       inkscape:label="bottom" />
    <path
       style="fill:#e97f02;fill-opacity:1;stroke:none;stroke-width:1.38520825;stroke-linecap:round;stroke-linejoin:round;stroke-miterlimit:4;stroke-dasharray:none;stroke-dashoffset:0;stroke-opacity:1"
       d="m 204.50211,-182.69596 c -15.96363,-0.11608 -29.36653,2.85299 -36.37705,8.78985 L 67.358384,-88.572033 c -12.210304,10.34046 -17.347366,24.49614 -16.426118,32.060123 l 2.919292,25.01463 c 1.1377,9.01795 14.364847,30.83850555 38.549469,46.53252 L 123.9117,35.969005 c 55.79759,36.207576 123.84658,30.295544 140.38973,-10.29818 l 55.26504,-137.405095 c 0.59984,-1.47244 1.74524,-10.39973 2.18713,-14.16433 0,0 0.16688,-4.7686 -1.08689,-9.02992 -2.18831,-8.99947 -21.29817,-26.34742 -54.84095,-35.83692 l -21.23383,-6.00794 c -13.71023,-3.8788 -27.67374,-5.8324 -40.08982,-5.92258 z m 97.7887,43.73192 c 1.90085,0.33553 6.94135,3.93282 9.45926,8.38833 -3.2888,-1.52655 -8.02518,-4.37756 -10.36912,-7.94519 0.30543,-0.20922 0.6618,-0.39896 0.90986,-0.44314 z M 236.00877,22.459481 c 1.71279,0.01953 3.58581,0.210108 5.1451,0.494772 -1.45437,1.061799 -3.18022,2.254971 -4.88504,3.240684 -6.99483,4.044278 -14.89425,5.441869 -20.07385,5.291972 1.02579,-1.228862 2.30231,-2.550403 3.66104,-3.607613 4.92163,-3.830127 10.23669,-5.278111 15.15121,-5.411812 0.33678,-0.0093 0.67012,-0.01181 1.00154,-0.008 z"
       id="path6162"
       inkscape:connector-curvature="0"
       sodipodi:nodetypes="ccccccccccccccccccccccccc"
       inkscape:label="metal edge" />
    <path
       inkscape:connector-curvature="0"
       style="fill:#f8ca00;fill-opacity:1;stroke:none;stroke-width:1.50343013;stroke-linecap:round;stroke-linejoin:round;stroke-miterlimit:4;stroke-dasharray:none;stroke-dashoffset:0;stroke-opacity:1"
       d="m 69.851873,-87.228123 c -25.296737,21.661273 -18.287625,60.469982 23.942075,87.25745396 0,0 30.252282,19.19006404 30.252282,19.19006404 53.88319,34.180131 119.73104,29.686654 136.09941,-8.573809 0,0 58.43641,-136.592596 58.43641,-136.592596 6.32661,-14.78744 -19.26427,-34.17405 -53.95855,-44.03834 0,0 -20.62927,-5.8654 -20.62927,-5.8654 -30.30819,-8.61714 -61.88292,-7.50503 -73.80017,2.69996 0,0 -100.342187,85.922667 -100.342187,85.922667 M 213.10808,21.180889 c 1.63726,-2.886906 3.87558,-6.998902 9.06024,-9.840287 10.16027,-5.5685763 22.17537,-3.2042698 27.49009,-1.105426 2.9901,1.78537 -3.14994,9.840834 -13.47551,15.811008 -10.62093,6.140827 -22.92593,6.198138 -25.44624,3.963706 -0.45581,-1.512857 0.71167,-5.902045 2.37142,-8.829001 0,0 0,0 0,0 M 300.91493,-144.9418 c 0.5105,-1.09996 1.83052,-2.29916 2.64247,-2.44405 1.97942,0.34946 7.32392,4.15728 9.72208,8.87282 2.48871,4.89228 2.21705,9.15713 -0.005,8.54768 -3.50668,-1.37429 -10.34866,-5.08013 -12.58881,-9.91948 -1.08968,-2.35391 -0.28564,-3.94748 0.23095,-5.05697 0,0 0,0 0,0"
       id="path6164"
       inkscape:label="metal top" />
    <path
       inkscape:connector-curvature="0"
       id="path6166"
       d="m 74.077517,-87.147597 c -0.06077,0.04254 -0.103317,0.09055 -0.151936,0.135527 -2.031688,3.989657 1.629362,9.038551 1.10974,13.553603 -0.780951,7.286911 -5.315329,9.547658 -15.178406,18.662238 1.02101,17.380811 13.220863,36.5933 36.713815,51.2976668 0,0 28.66425,17.9409072 28.66425,17.9409072 23.44676,14.675255 50.54242,21.600498 74.71361,20.391148 4.61825,-9.466281 10.21679,-25.2491499 19.9881,-29.8325122 9.59871,-4.83660912 25.43105,0.9063894 36.83293,-5.34431847 0,0 55.60007,-124.11214233 55.60007,-124.11214233 -2.98646,-6.09586 -13.28225,-10.35207 -15.51327,-14.90906 -2.21584,-4.14846 1.90527,-8.84328 3.96006,-11.90801 -9.23771,-7.03598 -22.57222,-13.41632 -38.13655,-17.86907 0,0 -19.7298,-5.64412 -19.7298,-5.64412 -16.75854,-4.79437 -33.63681,-6.39383 -47.0637,-5.12049 -4.20559,3.84739 -4.62918,5.50859 -10.78563,6.65079 -3.98437,0.75305 -10.03385,0.20298 -13.29136,1.42619 -0.0608,0.0365 -0.0851,0.0687 -0.12155,0.10392 0,0 -97.606727,84.577855 -97.606727,84.577855"
       style="fill:#490a3d;fill-opacity:1;stroke:none;stroke-width:4.51029062;stroke-linecap:round;stroke-linejoin:round;stroke-miterlimit:4;stroke-dasharray:none;stroke-dashoffset:0;stroke-opacity:1"
       inkscape:label="face" />
    <path
       sodipodi:nodetypes="cccccccccccccccccccccccccccccccccccc"
       inkscape:connector-curvature="0"
       d="m 209.80985,-172.92884 c 3.60635,-3.63237 14.89459,-4.04241 25.58237,-0.94194 9.61087,2.78802 16.11616,7.66511 15.22095,11.62784 1.26411,1.31419 3.9552,2.30973 6.69005,2.63396 0.76333,-0.0121 1.55886,0.0122 2.3781,0.0681 0,0 0.94748,0.0705 0.94748,0.0705 2.5428,0.23884 5.22416,0.76551 7.80404,1.53376 8.55764,2.55064 14.09662,7.15643 12.16035,10.30758 -1.9855,3.2315 -10.96857,3.60162 -19.83616,0.80849 -4.98046,-1.56883 -8.98367,-3.87443 -10.82514,-6.19298 0,0 -0.1884,-0.22851 -0.1884,-0.22851 -0.44365,-0.60805 -0.72261,-1.2026 -0.83625,-1.76993 -1.39478,-1.26958 -4.26697,-2.34298 -7.01762,-2.57422 -1.03013,0.11425 -2.12346,0.17989 -3.26784,0.19448 0,0 -0.0608,8.5e-4 -0.0608,8.5e-4 -4.91786,0.0693 -10.51154,-0.78983 -15.63786,-2.39318 -11.15636,-3.49848 -16.8497,-9.3928 -13.12423,-13.14465 0,0 0,1.8e-4 0,1.8e-4 M 87.889715,-50.154523 c -8.896157,8.958755 -5.070408,23.413885 9.570753,32.228483 13.414732,8.0634864 30.822342,8.3037883 40.500672,0.54393 4.04636,-0.512328 8.19664,1.267572 10.7753,4.198114 0.48619,0.988921 1.07145,1.971035 1.75334,2.935768 0,0 0.81012,1.1083428 0.81012,1.1083428 2.31551,2.9163811 5.4466,5.5506475 9.10461,7.6408615 12.24969,6.9945258 26.64411,6.1090428 31.56927,-1.90783 4.73432,-7.7058293 -1.3498,-18.8104673 -13.06954,-24.8850513 -6.53325,-3.378813 -13.90153,-4.693424 -19.99964,-3.590855 0,0 -0.6126,0.104532 -0.6126,0.104532 -1.60202,0.340337 -3.08187,0.847864 -4.40615,1.511338 -3.72486,0.190224 -7.95719,-1.590831 -10.16938,-4.390829 -0.35857,-1.310904 -0.86846,-2.615791 -1.51693,-3.900137 0,0 0,-0.06077 0,-0.06077 -2.72208,-5.42132 -7.84293,-10.26431 -14.32939,-13.660748 -14.00242,-7.310553 -31.489036,-6.401064 -39.951871,2.122363 0,0 0,-1.82e-4 0,-1.82e-4"
       style="fill:#bd1550;fill-opacity:1;stroke:none;stroke-width:4.91997528;stroke-linecap:round;stroke-linejoin:round;stroke-miterlimit:4;stroke-dasharray:none;stroke-dashoffset:0;stroke-opacity:1"
       id="path6168"
       inkscape:label="button surrounds" />
    <path
       inkscape:connector-curvature="0"
       style="fill:#e97f02;fill-opacity:1;stroke:none;stroke-width:8.86979008;stroke-linecap:round;stroke-linejoin:round;stroke-miterlimit:4;stroke-dasharray:none;stroke-dashoffset:0;stroke-opacity:1"
       d="m 90.72788,-85.395289 c 0,0 89.06002,-81.342281 89.06002,-81.342281 0.17625,-0.16166 0.66487,-0.17989 1.09516,-0.0425 0,0 102.45531,33.01982 102.45531,33.01982 0.5652,0.18172 0.92134,0.49835 0.801,0.71003 0,0 -63.835,112.441941 -63.835,112.441941 -0.2431,0.427852 -1.03438,0.473433 -1.77339,0.103317 0,0 -127.467626,-63.902156 -127.467626,-63.902156 -0.510505,-0.254644 -0.656971,-0.696049 -0.334259,-0.989528 0,0 0,0 0,0"
       id="path6170"
       inkscape:label="screen inset" />
    <path
       inkscape:connector-curvature="0"
       id="path6172"
       style="fill:#e97f02;fill-opacity:1;stroke:none;stroke-width:3.87133265;stroke-linecap:round;stroke-linejoin:round;stroke-miterlimit:4;stroke-dasharray:none;stroke-dashoffset:0;stroke-opacity:1"
       d="m 117.89843,-56.638604 c -0.44609,0.02033 -0.77718,0.124687 -0.9562,0.322735 l -5.15976,5.521169 -0.001,0.0013 0.001,0.0067 0.35474,4.901038 1.64835,5.819899 3.18468,1.759039 -0.72283,0.813505 0.001,0.004 0.25071,4.901038 2.70058,6.209315 9.6447,5.486495 c 1.41781,0.806598 4.01121,-0.355403 5.7919,-2.584547 l 0.96687,-1.20959 c 0.90128,-1.128276 1.39801,-2.296527 1.48565,-3.27536 h 0.0186 l 0.22272,-4.795683 -0.009,-0.0027 c 0.11973,-0.97172 -0.16736,-1.766542 -0.88952,-2.15379 l -9.74739,-5.22644 v -0.0014 l -0.10136,0.0014 3.52475,-4.106203 c 0.16288,-0.20481 0.30242,-0.545859 0.32674,-0.717485 l 0.06,-4.76901 h -0.008 c 0.009,-0.959416 -1.90908,-2.665549 -4.721,-4.118206 l -1.76171,-0.910859 c -2.39514,-1.237154 -4.76703,-1.937399 -6.10529,-1.876398 z m -20.412323,1.077562 c -1.366674,-0.06683 -3.337247,0.877171 -4.891701,2.439183 l -1.056227,1.061558 c -1.335791,1.342632 -2.014232,2.782777 -1.892398,3.784802 h -0.0014 l 0.0014,0.004 0.921529,5.185098 c 0.04254,0.21028 0.240254,0.555825 0.609457,0.765496 l 8.283088,4.712998 -4.654315,4.982389 c -0.180488,0.187275 -0.228312,0.438731 -0.170703,0.732154 -2e-5,-3.4e-5 -0.0068,3.7e-5 -0.0068,0 6.08e-4,-0.03038 0.732158,4.642317 0.732158,4.642317 h 0.01864 c -0.05469,1.068475 1.740499,2.954795 4.508958,4.594306 l 1.784377,1.058891 c 3.28802,1.946908 6.61025,2.773348 7.4149,1.836389 l 5.45849,-6.360014 -0.29873,-4.902371 v -0.0053 c 0,0 -0.001,0 -0.001,0 l -1.78705,-6.246656 -3.08999,-1.705694 0.81218,-0.900191 -0.40276,-4.903705 0.001,-0.0014 -2.51654,-5.769222 -8.939228,-4.793015 c -0.238431,-0.127854 -0.522126,-0.196622 -0.837509,-0.212044 z M 230.65164,-176.14791 c -1.26216,0.0452 -2.27143,0.31773 -2.73124,0.8055 -0.14577,0.1547 -0.22059,0.32309 -0.24405,0.49877 l -0.005,-0.001 -0.69748,2.55388 0.005,0.003 c -0.28929,0.96121 1.24761,2.21925 3.80348,2.98063 2.92027,0.86963 6.01365,0.75336 6.88145,-0.25738 0.0966,-0.11244 0.15073,-0.23332 0.18538,-0.35608 l 0.012,0.004 1.05222,-2.71391 -0.004,-10e-4 c 0.25025,-0.97173 -1.38972,-2.21859 -4.00618,-2.96063 -1.47456,-0.41825 -2.9894,-0.6 -4.25156,-0.55478 z m -15.17654,0.54278 c -1.26748,0.0454 -2.29665,0.31957 -2.78993,0.8095 -0.17509,0.17398 -0.26676,0.36441 -0.29073,0.56412 l -0.005,-0.001 -0.28006,2.65389 0.024,0.007 c -0.14464,0.94037 1.26929,2.10363 3.64077,2.82593 2.86849,0.87345 5.97675,0.75579 6.91213,-0.26005 0.0784,-0.0851 0.11289,-0.17896 0.15603,-0.27073 l 0.0253,0.007 0.0173,-0.0734 c 0.0182,-0.0547 0.0305,-0.11163 0.0427,-0.16937 l 0.60946,-2.61255 -0.012,-0.003 c 0.24234,-0.96784 -1.30372,-2.18765 -3.82748,-2.91928 -1.44922,-0.42005 -2.95475,-0.60289 -4.22222,-0.55746 z m 23.42496,6.81077 c -1.30204,0.0481 -2.33324,0.33883 -2.78993,0.85885 -0.099,0.1127 -0.16118,0.23221 -0.20004,0.35608 l -0.008,-0.001 -0.96687,2.72991 h 0.003 c -0.26132,1.02466 1.37517,2.36164 4.0422,3.17401 3.04953,0.92863 6.2413,0.80335 7.10016,-0.27606 0.0365,-0.0425 0.0365,-0.0903 0.0627,-0.13469 l 0.0253,0.005 1.31627,-2.73925 c 0.009,-0.0177 0.0175,-0.0354 0.0253,-0.0533 l 0.0147,-0.0307 -0.004,-0.001 c 0.41694,-1.05408 -1.35219,-2.46807 -4.20623,-3.29536 -1.53899,-0.44606 -3.11223,-0.64019 -4.41426,-0.59213 z m -15.65532,0.57746 c -1.30759,0.0483 -2.36027,0.3391 -2.8526,0.86151 -0.14451,0.15333 -0.22629,0.3192 -0.26273,0.49211 l -0.005,-0.001 -0.50944,2.6859 0.012,0.003 c -0.2109,1.01628 1.31953,2.30453 3.86081,3.09666 2.99551,0.93356 6.2016,0.80828 7.13218,-0.27606 0.1021,-0.11912 0.16126,-0.24675 0.20138,-0.37741 l 0.012,0.003 0.82284,-2.67257 c 0.011,-0.0324 0.0236,-0.0643 0.0307,-0.0974 l 0.009,-0.0307 -0.005,-10e-4 c 0.18335,-1.02879 -1.45088,-2.31555 -4.06353,-3.08999 -1.51176,-0.44809 -3.07466,-0.64306 -4.38226,-0.59479 z m 37.65864,7.12551 c -2.86514,-0.0277 -5.12742,0.54125 -5.99193,1.67502 -0.20404,0.26747 -0.31649,0.55374 -0.35208,0.85352 l -0.005,-0.001 -0.65881,3.51408 0.012,0.004 c -0.4558,2.01831 2.85404,4.7177 8.12439,6.36268 5.97413,1.8648 12.02132,1.62084 13.4015,-0.54012 0.0644,-0.10088 0.10477,-0.20559 0.1467,-0.31073 l 0.012,0.003 0.0307,-0.0814 c 0.004,-0.0121 0.006,-0.0238 0.012,-0.036 l 1.30427,-3.73414 -0.009,-0.003 c 0.62287,-2.09581 -3.05337,-4.91675 -8.62049,-6.54538 -2.58414,-0.75598 -5.17712,-1.13874 -7.40556,-1.16025 z m -93.74385,128.399191 c -4.28097,-0.07654 -8.01628,1.257673 -10.01279,3.9355 -0.64133,0.860096 -1.06064,1.805991 -1.27894,2.804594 l -0.004,-0.0027 -1.22426,5.391808 c -0.0365,0.147682 -0.37683,1.282515 -0.26805,2.845936 0.0851,1.226914 0.57667,3.083534 2.16179,5.250445 1.585,2.167094 3.99456,4.4912408 7.21086,6.2973339 8.22278,4.6176403 17.74643,4.0076331 21.13514,-1.2976077 0.45521,-0.7123367 0.76021,-1.4702729 0.86152,-1.864395 l 1.47898,-5.7918932 -0.003,-0.0014 c 1.27521,-4.951492 -2.6633,-11.149279 -9.63804,-14.800467 -3.43014,-1.795649 -7.0899,-2.707718 -10.41954,-2.767253 z"
       inkscape:label="button edges" />
    <path
       inkscape:connector-curvature="0"
       id="path6174"
       style="fill:#f8ca00;fill-opacity:1;stroke:none;stroke-width:3.91696954;stroke-linecap:round;stroke-linejoin:round;stroke-miterlimit:4;stroke-dasharray:none;stroke-dashoffset:0;stroke-opacity:1"
       d="m 111.78159,-50.793809 c 0,0 1.6885,5.821458 1.6885,5.821458 0,0 3.97555,2.14558 3.97555,2.14558 0,0 7.85169,-0.774205 7.85169,-0.774205 0,0 5.04938,-5.747678 5.04938,-5.747678 0.71677,-0.815654 -1.34074,-2.829049 -4.58154,-4.503262 0,0 -1.76197,-0.910097 -1.76197,-0.910097 -3.19351,-1.649538 -6.34539,-2.346013 -7.0615,-1.553819 0,0 -5.16011,5.522023 -5.16011,5.522023 m -11.27979,12.071316 c 0,0 7.95118,-0.764786 7.95118,-0.764786 0,0 4.00606,2.212006 4.00606,2.212006 0,0 1.78811,6.251924 1.78811,6.251924 0,0 -5.58632,6.359008 -5.58632,6.359008 -0.8238,0.936959 -4.22389,0.111825 -7.58969,-1.835083 0,0 -1.828585,-1.0579 -1.828585,-1.0579 -3.312326,-1.916217 -5.293268,-4.180246 -4.437199,-5.068525 0,0 5.696444,-6.096644 5.696444,-6.096644 m 26.18228,-1.418779 c 0,0 -8.17021,0.09724 -8.17021,0.09724 0,0 -2.26585,2.550155 -2.26585,2.550155 0,0 2.76427,6.207133 2.76427,6.207133 0,0 9.87359,5.487138 9.87359,5.487138 1.45153,0.806537 4.1075,-0.354923 5.93042,-2.583885 0,0 0.98923,-1.209532 0.98923,-1.209532 1.78993,-2.188607 2.05873,-4.552671 0.62652,-5.320677 0,0 -9.74797,-5.227267 -9.74797,-5.227267 m -19.42186,-10.414605 c 0,0 2.51661,5.768767 2.51661,5.768767 0,0 -2.29636,2.483789 -2.29636,2.483789 0,0 -8.121648,0.09542 -8.121648,0.09542 0,0 -9.035026,-5.020938 -9.035026,-5.020938 -1.285378,-0.714039 -0.733486,-2.876696 1.211963,-4.832112 0,0 1.056442,-1.061851 1.056442,-1.061851 1.913178,-1.922476 4.457802,-2.908115 5.729446,-2.226227 0,0 8.938573,4.793095 8.938573,4.793095 M 219.69778,-175.0481 c 2.91967,0.8464 4.5356,2.3471 3.58156,3.35395 -0.96279,1.01572 -4.15964,1.13241 -7.11249,0.2589 -2.93036,-0.86707 -4.47622,-2.37263 -3.48146,-3.36101 0.98655,-0.97986 4.11394,-1.09169 7.01239,-0.2516 0,0 0,0 0,0 m 23.6159,6.84526 c 3.10175,0.8991 4.92978,2.49315 4.0539,3.56272 -0.88397,1.07929 -4.17028,1.20279 -7.30952,0.27409 -3.11487,-0.9217 -4.86973,-2.5211 -3.94821,-3.57037 0.91338,-1.04004 4.12585,-1.1583 7.20383,-0.26619 0,0 0,0 0,0 m -4.61071,-4.05214 c -0.89332,1.01111 -4.07705,1.12725 -7.08307,0.25769 -2.98287,-0.86312 -4.62633,-2.36188 -3.69922,-3.34582 0.91964,-0.97555 4.0339,-1.08689 6.98304,-0.25039 2.97096,0.84258 4.68449,2.33653 3.79925,3.33889 0,0 0,0 0,0 m -7.25385,8.2111 c -0.9578,1.08428 -4.25785,1.20838 -7.34149,0.2747 -3.05859,-0.92601 -4.70892,-2.53289 -3.71544,-3.58702 0.98467,-1.04484 4.21094,-1.16359 7.23446,-0.26741 3.04735,0.90329 4.77152,2.50482 3.82247,3.57937 0,0 0,0 0,0 m 36.85968,4.11175 c 5.99278,1.75316 9.8023,4.88924 8.40777,7.01367 -1.41829,2.16084 -7.6309,2.40758 -13.76984,0.54272 -6.04772,-1.83697 -9.59871,-4.99268 -8.03553,-7.04181 1.53692,-2.01558 7.49099,-2.2427 13.3976,-0.51476 0,0 0,0 0,0 m -90.72986,130.007505 c 8.01741,4.197019 12.02701,11.758935 8.71213,16.924881 -3.40404,5.3052402 -13.07276,5.8877628 -21.33249,1.270063 -8.06926,-4.510858 -11.45311,-12.144366 -7.81163,-17.028015 3.54934,-4.76058 12.59166,-5.271267 20.43199,-1.166929 0,0 0,0 0,0"
       inkscape:label="button tops" />
    <path
       sodipodi:nodetypes="ccccccc"
       id="path6176"
       d="m 180.8579,-162.87025 c 0.17199,-0.15923 0.64828,-0.17686 1.06786,-0.0425 l 100.45365,32.96263 c -20.86282,36.85755 -41.02856,72.489642 -61.89071,109.347554 -0.23702,0.419951 -1.10123,0.523876 -1.82183,0.160445 -41.80835,-20.956412 -81.79457,-41.00382 -123.603223,-61.959563 z"
       style="display:inline;opacity:0.95;fill:#f8ca00;fill-opacity:1;stroke:none;stroke-width:8.67802525;stroke-linecap:round;stroke-linejoin:round;stroke-miterlimit:4;stroke-dasharray:none;stroke-dashoffset:0;stroke-opacity:1"
       inkscape:connector-curvature="0"
       inkscape:label="screen" />
  </g>
</svg>
