<svg id="Layer_1" data-name="Layer 1" xmlns="http://www.w3.org/2000/svg" viewBox="0 0 429 172.39"><path d="M342,150.79c-1.67,3.16-1.43,9.35-1.23,15.65a5.71,5.71,0,0,1-5.64,6H297.45a5.71,5.71,0,0,1-5.64-5.74c0-6.61-.24-12.66-1.88-15.87a10,10,0,0,0-17.86,0c-1.67,3.16-1.43,9.35-1.23,15.65a5.71,5.71,0,0,1-5.64,6H227.49a5.69,5.69,0,0,1-5.64-5.74c0-6.61-.24-12.66-1.88-15.87a10,10,0,0,0-17.87,0c-1.66,3.16-1.42,9.35-1.22,15.65a5.72,5.72,0,0,1-5.64,6H157.53a5.71,5.71,0,0,1-5.65-5.74c0-6.61-.23-12.66-1.88-15.87a10,10,0,0,0-17.86,0c-1.67,3.16-1.43,9.35-1.22,15.65a5.73,5.73,0,0,1-5.65,6H87.78a5.71,5.71,0,0,1-5.65-5.74c0-6.61-.24-12.66-1.88-15.87a10,10,0,0,0-17.86,0c-1.67,3.16-1.43,9.35-1.23,15.65a5.71,5.71,0,0,1-5.64,6H11.77c-6.5,0-11.77-5-11.77-11.17V118.1H429v43.13c0,6.16-5.28,11.17-11.78,11.17h-49.8a5.71,5.71,0,0,1-5.65-5.74c0-6.61-.23-12.66-1.88-15.87A10,10,0,0,0,342,150.79Z"/><path d="M190.85,42.16a5.63,5.63,0,0,0-5.62-5.63h-27a5.63,5.63,0,0,0-5.63,5.63V75.5a5.63,5.63,0,0,0,5.63,5.63h27a5.63,5.63,0,0,0,5.62-5.63Zm80,0a5.63,5.63,0,0,0-5.62-5.63H238.18a5.63,5.63,0,0,0-5.63,5.63V75.5a5.63,5.63,0,0,0,5.63,5.63h27.05a5.63,5.63,0,0,0,5.62-5.63Zm41.7,0V75.5a5.63,5.63,0,0,0,5.63,5.63h27.05a5.63,5.63,0,0,0,5.62-5.63V42.16a5.63,5.63,0,0,0-5.62-5.63H318.18A5.63,5.63,0,0,0,312.55,42.16Zm-201.7,0a5.63,5.63,0,0,0-5.62-5.63h-27a5.63,5.63,0,0,0-5.63,5.63V75.5a5.63,5.63,0,0,0,5.63,5.63h27.05a5.63,5.63,0,0,0,5.62-5.63ZM429,105.47v5.23a.56.56,0,0,1-.55.56H0V94a3.11,3.11,0,0,1,2.75-3.14C24,88.79,24,62.76,2.75,60.69A3.11,3.11,0,0,1,0,57.56V12.07A11.93,11.93,0,0,1,11.77,0H417.22A11.94,11.94,0,0,1,429,12.07V57.5a3.2,3.2,0,0,1-2.8,3.21c-21.22,2.09-21.22,28,0,30.14A3.17,3.17,0,0,1,429,94Z"/></svg>